<?xml version="1.0" encoding="utf-8"?>
<!-- Generator: Adobe Illustrator 28.0.0, SVG Export Plug-In . SVG Version: 6.00 Build 0)  -->
<svg version="1.1" id="Layer_1" xmlns="http://www.w3.org/2000/svg" xmlns:xlink="http://www.w3.org/1999/xlink" x="0px" y="0px"
	 viewBox="0 0 283.89 190.61" style="enable-background:new 0 0 283.89 190.61;" xml:space="preserve">
<style type="text/css">
	.st0{fill:#FFFFFF;}
	.st1{display:none;}
	.st2{display:inline;}
	.st3{display:inline;fill:#FFFFFF;}
	.st4{fill:#FFFFFF;stroke:#000000;stroke-width:12;stroke-miterlimit:10;}
</style>
<path d="M82.72,18.48c-8.56,0-15.5,6.94-15.5,15.5v43.47H31V33.98c0-8.56-6.94-15.5-15.5-15.5S0,25.42,0,33.98v117.94
	c0,8.56,6.94,15.5,15.5,15.5s15.5-6.94,15.5-15.5v-43.47h36.22v43.47c0,8.56,6.94,15.5,15.5,15.5s15.5-6.94,15.5-15.5V33.98
	C98.22,25.42,91.28,18.48,82.72,18.48z"/>
<path d="M268.39,18.48h-67.22c-8.56,0-15.5,6.94-15.5,15.5s6.94,15.5,15.5,15.5h18.11v102.44c0,8.56,6.94,15.5,15.5,15.5
	s15.5-6.94,15.5-15.5V49.48h18.11c8.56,0,15.5-6.94,15.5-15.5S276.95,18.48,268.39,18.48z"/>
<g>
	<g>
		<path class="st0" d="M175.06,108.45c-0.87,0-1.75-0.1-2.62-0.3c-3.93-0.9-7.12-3.76-8.44-7.57l-12.17-35.09
			c-2.12-6.11,1.12-12.78,7.22-14.9c6.11-2.12,12.78,1.12,14.9,7.22L180,75.24l16.9-16.9c4.57-4.57,11.99-4.57,16.56,0
			c4.57,4.57,4.57,11.99,0,16.56l-30.12,30.12C181.12,107.24,178.13,108.45,175.06,108.45z"/>
		<path d="M175.06,111.64c-1.12,0-2.24-0.13-3.34-0.38c-5.03-1.16-9.05-4.76-10.74-9.64l-12.17-35.09
			c-2.69-7.76,1.43-16.27,9.19-18.96c3.76-1.3,7.8-1.07,11.38,0.67c3.58,1.74,6.27,4.76,7.58,8.52l4.38,12.62l13.3-13.3
			c2.81-2.81,6.56-4.36,10.54-4.36c3.98,0,7.72,1.55,10.54,4.36c5.81,5.81,5.81,15.26,0,21.07l-30.12,30.12
			C182.79,110.09,179.04,111.64,175.06,111.64z M162.9,53.13c-0.94,0-1.88,0.16-2.8,0.47c-4.44,1.54-6.79,6.4-5.25,10.84
			l12.17,35.09c0.97,2.79,3.26,4.85,6.14,5.51c0.62,0.14,1.27,0.22,1.91,0.22c2.27,0,4.41-0.89,6.02-2.49l30.12-30.12
			c3.32-3.32,3.32-8.72,0-12.04c-1.61-1.61-3.75-2.49-6.02-2.49s-4.41,0.89-6.02,2.49l-20.51,20.51l-7.72-22.25
			c-0.75-2.15-2.28-3.88-4.33-4.87C165.43,53.42,164.17,53.13,162.9,53.13z"/>
	</g>
</g>
<g>
	<g>
		<g>
			<path class="st0" d="M133.63,121.36c-2.4,0-4.83-0.56-7.11-1.75c-7.56-3.93-10.5-13.25-6.57-20.81l24.37-46.82
				c3.93-7.56,13.25-10.5,20.81-6.57c7.56,3.93,10.5,13.25,6.57,20.81l-24.37,46.82C144.58,118.34,139.2,121.36,133.63,121.36z"/>
			<path d="M133.63,124.56c-2.97,0-5.94-0.73-8.58-2.11c-4.41-2.3-7.67-6.17-9.17-10.92c-1.5-4.74-1.06-9.79,1.24-14.2l24.37-46.82
				c4.74-9.11,16.01-12.67,25.12-7.92c4.41,2.3,7.67,6.17,9.17,10.92c1.5,4.74,1.06,9.79-1.24,14.2l-24.37,46.82
				C146.94,120.71,140.61,124.56,133.63,124.56z M158.02,46.86c-4.42,0-8.7,2.4-10.88,6.59l-24.37,46.82
				c-1.51,2.9-1.8,6.21-0.81,9.33c0.98,3.12,3.12,5.67,6.02,7.18c1.77,0.92,3.66,1.38,5.64,1.38c4.59,0,8.75-2.53,10.87-6.59
				l24.37-46.82c1.51-2.9,1.8-6.21,0.81-9.33c-0.98-3.12-3.12-5.67-6.02-7.18C161.85,47.31,159.93,46.86,158.02,46.86z"/>
		</g>
	</g>
</g>
<g>
	<g>
		<path class="st0" d="M119.29,99.59c-5.5,0-10.4-3.89-11.48-9.48l-8.1-41.82c-0.77-3.96,0.56-8.03,3.51-10.78
			c2.95-2.75,7.11-3.79,11-2.75l35.89,9.56c6.25,1.66,9.96,8.08,8.3,14.33c-1.66,6.25-8.08,9.97-14.33,8.3l-17.83-4.75l4.54,23.47
			c1.23,6.35-2.92,12.49-9.27,13.72C120.78,99.52,120.03,99.59,119.29,99.59z"/>
		<path d="M119.29,102.78c-7.11,0-13.26-5.08-14.62-12.07l-8.1-41.82c-0.98-5.07,0.69-10.2,4.46-13.73c3.78-3.52,9.01-4.83,14-3.5
			l35.89,9.56c3.85,1.02,7.06,3.48,9.06,6.93c2,3.44,2.53,7.46,1.51,11.3c-1.02,3.85-3.49,7.06-6.93,9.06
			c-3.44,2-7.46,2.53-11.31,1.5l-12.9-3.44l3.57,18.46c1.56,8.07-3.73,15.9-11.8,17.46C121.2,102.69,120.24,102.78,119.29,102.78
			L119.29,102.78C119.29,102.78,119.29,102.78,119.29,102.78z M111.19,37.54c-2.12,0-4.19,0.8-5.79,2.29
			c-2.16,2.01-3.11,4.95-2.55,7.84l8.1,41.82c0.77,4,4.28,6.9,8.35,6.9h0c0.54,0,1.09-0.05,1.63-0.16c4.61-0.89,7.63-5.37,6.74-9.98
			l-5.51-28.47l22.76,6.06c2.2,0.59,4.49,0.28,6.46-0.86c1.97-1.14,3.37-2.98,3.96-5.18c0.59-2.2,0.28-4.49-0.86-6.46
			c-1.14-1.97-2.98-3.37-5.18-3.96l-35.89-9.56C112.66,37.64,111.92,37.54,111.19,37.54z"/>
	</g>
</g>
<g>
	<g>
		<path class="st0" d="M105,156.91c-0.33,0-0.66-0.01-1-0.04l-34.06-2.91c-6.44-0.55-11.22-6.22-10.67-12.66
			c0.55-6.44,6.22-11.22,12.66-10.67l27.17,2.32l19.84-29.66c3.6-5.38,10.87-6.82,16.24-3.22c5.37,3.59,6.82,10.87,3.22,16.24
			l-23.68,35.4C112.55,154.98,108.89,156.91,105,156.91z"/>
		<path d="M105,160.11c-0.42,0-0.85-0.02-1.27-0.05l-34.06-2.91c-8.19-0.7-14.28-7.93-13.58-16.11c0.34-3.97,2.2-7.56,5.25-10.13
			c3.04-2.57,6.9-3.79,10.87-3.45l25.3,2.16l18.79-28.09c2.21-3.31,5.58-5.56,9.49-6.33c3.9-0.78,7.88,0.02,11.18,2.23
			c3.31,2.21,5.56,5.58,6.33,9.49c0.77,3.9-0.02,7.88-2.23,11.18l-23.68,35.4C114.62,157.63,109.99,160.11,105,160.11z
			 M70.92,133.78c-2,0-3.92,0.7-5.47,2c-1.74,1.47-2.8,3.52-3,5.79c-0.4,4.68,3.08,8.81,7.76,9.21l34.06,2.91
			c0.24,0.02,0.49,0.03,0.73,0.03c2.85,0,5.49-1.41,7.08-3.78l23.68-35.4c1.26-1.89,1.72-4.16,1.27-6.39
			c-0.44-2.23-1.73-4.16-3.62-5.42c-1.89-1.26-4.16-1.72-6.39-1.27c-2.23,0.44-4.16,1.73-5.42,3.62l-20.89,31.22l-29.05-2.48
			C71.42,133.79,71.17,133.78,70.92,133.78z"/>
	</g>
</g>
<g>
	<g>
		<path class="st0" d="M146.73,187.42c-1.63,0-3.29-0.34-4.87-1.07c-5.88-2.69-8.46-9.64-5.77-15.52l11.36-24.8l-21.22-28.69
			c-3.85-5.2-2.75-12.53,2.45-16.38c5.2-3.85,12.53-2.75,16.38,2.45l25.33,34.24c2.54,3.43,3.01,7.96,1.23,11.84l-14.24,31.08
			C155.42,184.88,151.17,187.42,146.73,187.42z"/>
		<path d="M146.73,190.61c-2.15,0-4.23-0.46-6.2-1.36c-3.62-1.66-6.38-4.62-7.76-8.36c-1.39-3.73-1.24-7.78,0.42-11.4l10.57-23.08
			l-20.1-27.17c-2.37-3.2-3.35-7.13-2.76-11.07c0.59-3.94,2.68-7.41,5.88-9.77c3.2-2.37,7.13-3.35,11.07-2.76
			c3.94,0.59,7.41,2.68,9.77,5.88l25.33,34.24c3.23,4.36,3.83,10.14,1.57,15.07l-14.24,31.08
			C157.87,187.19,152.55,190.61,146.73,190.61z M135.63,101.87c-1.81,0-3.56,0.58-5.05,1.67c-1.83,1.35-3.02,3.34-3.36,5.59
			c-0.34,2.25,0.22,4.5,1.58,6.32l22.34,30.2L139,172.16c-0.95,2.07-1.03,4.38-0.24,6.51c0.79,2.13,2.37,3.83,4.44,4.77
			c1.12,0.52,2.32,0.78,3.54,0.78c3.32,0,6.37-1.95,7.75-4.97l14.24-31.08c1.29-2.82,0.95-6.12-0.9-8.61l-25.33-34.24
			c-1.35-1.83-3.34-3.02-5.59-3.36C136.48,101.9,136.05,101.87,135.63,101.87z"/>
	</g>
</g>
<circle class="st0" cx="168.77" cy="29.21" r="26.02"/>
<path d="M168.77,58.42c-16.11,0-29.21-13.1-29.21-29.21C139.56,13.1,152.66,0,168.77,0c16.11,0,29.21,13.1,29.21,29.21
	C197.98,45.32,184.88,58.42,168.77,58.42z M168.77,6.39c-12.59,0-22.82,10.24-22.82,22.82c0,12.59,10.24,22.82,22.82,22.82
	c12.59,0,22.82-10.24,22.82-22.82C191.59,16.63,181.36,6.39,168.77,6.39z"/>
<g class="st1">
	<path class="st2" d="M-266.31-193.22c-8.56,0-15.5,6.94-15.5,15.5v43.47h-36.22v-43.47c0-8.56-6.94-15.5-15.5-15.5
		s-15.5,6.94-15.5,15.5v117.94c0,8.56,6.94,15.5,15.5,15.5s15.5-6.94,15.5-15.5v-43.47h36.22v43.47c0,8.56,6.94,15.5,15.5,15.5
		s15.5-6.94,15.5-15.5v-117.94C-250.81-186.28-257.75-193.22-266.31-193.22z"/>
	<path class="st2" d="M-80.64-193.22h-67.22c-8.56,0-15.5,6.94-15.5,15.5s6.94,15.5,15.5,15.5h18.11v102.44
		c0,8.56,6.94,15.5,15.5,15.5s15.5-6.94,15.5-15.5v-102.44h18.11c8.56,0,15.5-6.94,15.5-15.5S-72.08-193.22-80.64-193.22z"/>
	<g class="st2">
		<g>
			<path class="st0" d="M-173.96-103.25c-0.87,0-1.75-0.1-2.62-0.3c-3.93-0.9-7.12-3.76-8.44-7.57l-12.17-35.09
				c-2.12-6.11,1.12-12.78,7.22-14.9c6.11-2.12,12.78,1.12,14.9,7.22l6.05,17.43l16.9-16.9c4.57-4.57,11.99-4.57,16.56,0
				c4.57,4.57,4.57,11.99,0,16.56l-30.12,30.12C-167.9-104.46-170.89-103.25-173.96-103.25z"/>
			<path d="M-173.96-100.06c-1.12,0-2.24-0.13-3.34-0.38c-5.03-1.16-9.05-4.76-10.74-9.64l-12.17-35.09
				c-2.69-7.76,1.43-16.27,9.19-18.96c3.76-1.3,7.8-1.07,11.38,0.67c3.58,1.74,6.27,4.76,7.58,8.52l4.38,12.62l13.3-13.3
				c2.81-2.81,6.56-4.36,10.54-4.36c3.98,0,7.72,1.55,10.54,4.36c5.81,5.81,5.81,15.26,0,21.07l-30.12,30.12
				C-166.24-101.61-169.98-100.06-173.96-100.06z M-186.13-158.57c-0.94,0-1.88,0.16-2.8,0.47c-4.44,1.54-6.79,6.4-5.25,10.84
				l12.17,35.09c0.97,2.79,3.26,4.85,6.14,5.51c0.62,0.14,1.27,0.22,1.91,0.22c2.27,0,4.41-0.89,6.02-2.49l30.12-30.12
				c3.32-3.32,3.32-8.72,0-12.04c-1.61-1.61-3.75-2.49-6.02-2.49s-4.41,0.89-6.02,2.49l-20.51,20.51l-7.72-22.25
				c-0.75-2.15-2.28-3.88-4.33-4.87C-183.6-158.28-184.86-158.57-186.13-158.57z"/>
		</g>
	</g>
	<g class="st2">
		<g>
			<g>
				<path class="st0" d="M-215.4-90.34c-2.4,0-4.83-0.56-7.11-1.75c-7.56-3.93-10.5-13.25-6.57-20.81l24.37-46.82
					c3.93-7.56,13.25-10.5,20.81-6.57c7.56,3.93,10.5,13.25,6.57,20.81l-24.37,46.82C-204.45-93.36-209.83-90.34-215.4-90.34z"/>
				<path d="M-215.4-87.14c-2.97,0-5.94-0.73-8.58-2.11c-4.41-2.3-7.67-6.17-9.17-10.92c-1.5-4.74-1.06-9.79,1.24-14.2l24.37-46.82
					c4.74-9.11,16.01-12.67,25.12-7.92c4.41,2.3,7.67,6.17,9.17,10.92c1.5,4.74,1.06,9.79-1.24,14.2l-24.37,46.82
					C-202.09-90.99-208.42-87.14-215.4-87.14z M-191-164.84c-4.42,0-8.7,2.4-10.88,6.59l-24.37,46.82c-1.51,2.9-1.8,6.21-0.81,9.33
					c0.98,3.12,3.12,5.67,6.02,7.18c1.77,0.92,3.66,1.38,5.64,1.38c4.59,0,8.75-2.53,10.87-6.59l24.37-46.82
					c1.51-2.9,1.8-6.21,0.81-9.33c-0.98-3.12-3.12-5.67-6.02-7.18C-187.17-164.39-189.1-164.84-191-164.84z"/>
			</g>
		</g>
	</g>
	<g class="st2">
		<g>
			<path class="st0" d="M-229.74-112.11c-5.5,0-10.4-3.89-11.48-9.48l-8.1-41.82c-0.77-3.96,0.56-8.03,3.51-10.78
				c2.95-2.75,7.11-3.79,11-2.75l35.89,9.56c6.25,1.66,9.96,8.08,8.3,14.33c-1.66,6.25-8.08,9.97-14.33,8.3l-17.83-4.75l4.54,23.47
				c1.23,6.35-2.92,12.49-9.27,13.72C-228.25-112.18-229-112.11-229.74-112.11z"/>
			<path d="M-229.74-108.92c-7.11,0-13.26-5.08-14.62-12.07l-8.1-41.82c-0.98-5.07,0.69-10.2,4.46-13.73c3.78-3.52,9.01-4.83,14-3.5
				l35.89,9.56c3.85,1.02,7.06,3.48,9.06,6.93c2,3.44,2.53,7.46,1.51,11.3c-1.02,3.85-3.49,7.06-6.93,9.06
				c-3.44,2-7.46,2.53-11.31,1.5l-12.9-3.44l3.57,18.46c1.56,8.07-3.73,15.9-11.8,17.46C-227.83-109.01-228.79-108.92-229.74-108.92
				L-229.74-108.92C-229.74-108.92-229.74-108.92-229.74-108.92z M-237.84-174.16c-2.12,0-4.19,0.8-5.79,2.29
				c-2.16,2.01-3.11,4.95-2.55,7.84l8.1,41.82c0.77,4,4.28,6.9,8.35,6.9h0c0.54,0,1.09-0.05,1.63-0.16
				c4.61-0.89,7.63-5.37,6.74-9.98l-5.51-28.47l22.76,6.06c2.2,0.59,4.49,0.28,6.46-0.86c1.97-1.14,3.37-2.98,3.96-5.18
				c0.59-2.2,0.28-4.49-0.86-6.46c-1.14-1.97-2.98-3.37-5.18-3.96l-35.89-9.56C-236.36-174.06-237.11-174.16-237.84-174.16z"/>
		</g>
	</g>
	<g class="st2">
		<g>
			<path class="st0" d="M-244.02-54.79c-0.33,0-0.66-0.01-1-0.04l-34.06-2.91c-6.44-0.55-11.22-6.22-10.67-12.66
				c0.55-6.44,6.22-11.22,12.66-10.67l27.17,2.32l19.84-29.66c3.6-5.38,10.87-6.82,16.24-3.22c5.37,3.59,6.82,10.87,3.22,16.24
				l-23.68,35.4C-236.48-56.72-240.14-54.79-244.02-54.79z"/>
			<path d="M-244.02-51.59c-0.42,0-0.85-0.02-1.27-0.05l-34.06-2.91c-8.19-0.7-14.28-7.93-13.58-16.11
				c0.34-3.97,2.2-7.56,5.25-10.13c3.04-2.57,6.9-3.79,10.87-3.45l25.3,2.16l18.79-28.09c2.21-3.31,5.58-5.56,9.49-6.33
				c3.9-0.78,7.88,0.02,11.18,2.23c3.31,2.21,5.56,5.58,6.33,9.49c0.77,3.9-0.02,7.88-2.23,11.18l-23.68,35.4
				C-234.41-54.07-239.04-51.59-244.02-51.59z M-278.1-77.92c-2,0-3.92,0.7-5.47,2c-1.74,1.47-2.8,3.52-3,5.79
				c-0.4,4.68,3.08,8.81,7.76,9.21l34.06,2.91c0.24,0.02,0.49,0.03,0.73,0.03c2.85,0,5.49-1.41,7.08-3.78l23.68-35.4
				c1.26-1.89,1.72-4.16,1.27-6.39c-0.44-2.23-1.73-4.16-3.62-5.42c-1.89-1.26-4.16-1.72-6.39-1.27c-2.23,0.44-4.16,1.73-5.42,3.62
				l-20.89,31.22l-29.05-2.48C-277.61-77.91-277.86-77.92-278.1-77.92z"/>
		</g>
	</g>
	<g class="st2">
		<g>
			<path class="st0" d="M-202.29-24.28c-1.63,0-3.29-0.34-4.87-1.07c-5.88-2.69-8.46-9.64-5.77-15.52l11.36-24.8l-21.22-28.69
				c-3.85-5.2-2.75-12.53,2.45-16.38c5.2-3.85,12.53-2.75,16.38,2.45l25.33,34.24c2.54,3.43,3.01,7.96,1.23,11.84l-14.24,31.08
				C-193.61-26.82-197.86-24.28-202.29-24.28z"/>
			<path d="M-202.29-21.09c-2.15,0-4.23-0.46-6.2-1.36c-3.62-1.66-6.38-4.62-7.76-8.36c-1.39-3.73-1.24-7.78,0.42-11.4l10.57-23.08
				l-20.1-27.17c-2.37-3.2-3.35-7.13-2.76-11.07c0.59-3.94,2.68-7.41,5.88-9.77c3.2-2.37,7.13-3.35,11.07-2.76
				c3.94,0.59,7.41,2.68,9.77,5.88l25.33,34.24c3.23,4.36,3.83,10.14,1.57,15.07l-14.24,31.08
				C-191.16-24.51-196.48-21.09-202.29-21.09z M-213.4-109.83c-1.81,0-3.56,0.58-5.05,1.67c-1.83,1.35-3.02,3.34-3.36,5.59
				c-0.34,2.25,0.22,4.5,1.58,6.32l22.34,30.2l-12.14,26.51c-0.95,2.07-1.03,4.38-0.24,6.51c0.79,2.13,2.37,3.83,4.44,4.77
				c1.12,0.52,2.31,0.78,3.54,0.78c3.32,0,6.37-1.95,7.75-4.97l14.24-31.08c1.29-2.82,0.95-6.12-0.9-8.61l-25.33-34.24
				c-1.35-1.83-3.34-3.02-5.59-3.36C-212.55-109.8-212.98-109.83-213.4-109.83z"/>
		</g>
	</g>
	<circle class="st3" cx="-180.26" cy="-182.49" r="26.02"/>
	<path class="st2" d="M-180.26-153.28c-16.11,0-29.21-13.1-29.21-29.21c0-16.11,13.1-29.21,29.21-29.21
		c16.11,0,29.21,13.1,29.21,29.21C-151.05-166.38-164.15-153.28-180.26-153.28z M-180.26-205.31c-12.59,0-22.82,10.24-22.82,22.82
		c0,12.59,10.24,22.82,22.82,22.82c12.59,0,22.82-10.24,22.82-22.82C-157.43-195.07-167.67-205.31-180.26-205.31z"/>
	<g class="st2">
		<path class="st4" d="M-475.83,5.33c-1.64,0-3.29-0.18-4.92-0.56c-7.39-1.7-13.38-7.07-15.86-14.23l-22.87-65.94
			c-3.98-11.48,2.1-24.01,13.58-28c11.48-3.98,24.01,2.1,28,13.58l11.36,32.76l31.76-31.76c8.59-8.59,22.52-8.59,31.11,0
			c8.59,8.59,8.59,22.52,0,31.11l-56.59,56.59C-464.44,3.06-470.06,5.33-475.83,5.33z"/>
	</g>
	<g class="st2">
		<g>
			<path class="st4" d="M-553.69,29.6c-4.51,0-9.08-1.05-13.36-3.28c-14.21-7.39-19.73-24.9-12.34-39.11l45.78-87.99
				c7.39-14.21,24.9-19.73,39.11-12.34c14.21,7.39,19.73,24.9,12.34,39.11l-45.78,87.99C-533.11,23.92-543.22,29.6-553.69,29.6z"/>
		</g>
	</g>
	<g class="st2">
		<path class="st4" d="M-580.63-11.32c-10.33,0-19.54-7.31-21.58-17.82l-15.21-78.58c-1.44-7.44,1.05-15.1,6.59-20.27
			c5.54-5.17,13.35-7.12,20.67-5.17l67.44,17.96c11.74,3.13,18.72,15.18,15.6,26.92c-3.13,11.74-15.18,18.73-26.92,15.6l-33.51-8.92
			l8.54,44.1c2.31,11.93-5.49,23.47-17.42,25.78C-577.84-11.45-579.25-11.32-580.63-11.32z"/>
	</g>
	<g class="st2">
		<path class="st4" d="M-607.48,96.41c-0.62,0-1.25-0.03-1.88-0.08l-64-5.46c-12.11-1.03-21.08-11.68-20.05-23.79
			c1.03-12.11,11.69-21.09,23.79-20.05l51.06,4.36l37.28-55.73c6.76-10.1,20.42-12.81,30.52-6.05c10.1,6.75,12.81,20.42,6.05,30.52
			l-44.5,66.52C-593.3,92.77-600.18,96.41-607.48,96.41z"/>
	</g>
	<g class="st2">
		<path class="st4" d="M-529.06,153.72c-3.07,0-6.18-0.64-9.15-2c-11.05-5.06-15.9-18.12-10.84-29.16l21.34-46.59l-39.87-53.9
			c-7.23-9.77-5.17-23.54,4.6-30.77c9.77-7.23,23.54-5.17,30.77,4.6l47.6,64.34c4.76,6.44,5.65,14.96,2.31,22.25l-26.75,58.4
			C-512.75,148.96-520.73,153.72-529.06,153.72z"/>
	</g>
	<g class="st2">
		<circle class="st4" cx="-487.65" cy="-143.56" r="48.89"/>
	</g>
</g>
</svg>
